<?xml version="1.0" encoding="UTF-8"?><svg id="Layer_2" xmlns="http://www.w3.org/2000/svg" xmlns:xlink="http://www.w3.org/1999/xlink" viewBox="0 0 2047.51 1854.84"><defs><style>.cls-1{fill:url(#_Безымянный_градиент_47);}.cls-2{fill:url(#_Безымянный_градиент_47-4);}.cls-3{fill:url(#_Безымянный_градиент_47-2);}.cls-4{fill:url(#_Безымянный_градиент_47-3);}</style><linearGradient id="_Безымянный_градиент_47" x1="-424.96" y1="1149.69" x2="2368.4" y2="787.48" gradientUnits="userSpaceOnUse"><stop offset="0" stop-color="#5cb8e4"/><stop offset=".17" stop-color="#5fb1e5"/><stop offset=".42" stop-color="#679eeb"/><stop offset=".7" stop-color="#757ff4"/><stop offset="1" stop-color="#8758ff"/></linearGradient><linearGradient id="_Безымянный_градиент_47-2" x1="-399.6" y1="1345.33" x2="2393.77" y2="983.12" xlink:href="#_Безымянный_градиент_47"/><linearGradient id="_Безымянный_градиент_47-3" x1="-343.98" y1="1774.23" x2="2449.38" y2="1412.02" xlink:href="#_Безымянный_градиент_47"/><linearGradient id="_Безымянный_градиент_47-4" x1="-331.48" y1="1870.66" x2="2461.88" y2="1508.44" xlink:href="#_Безымянный_градиент_47"/></defs><g id="_Слой_1"><g><path class="cls-1" d="M1023.76,0C649.63,0,322.4,200.69,143.81,500.31l36.17,15.07s169.96,445.74,582.21,668.03c496.4,267.59,864.15,651.64,864.15,651.64l-4.78,19.79c258.02-185.9,425.95-488.86,425.95-831.1C2047.51,458.35,1589.16,0,1023.76,0Zm-312.38,303.1c8.91,4.42,139.3-2.46,261.64-23.99,8.04-1.45,16.16-2.9,24.14-4.42-4.78-117.56-9.64-205.76-9.64-205.76h21.74c7.25,65.23,17.9,131.76,28.48,197.79,115.46-23.92,213.08-52.62,216.71-53.63-92.92,145.82,17.47,261.43,17.47,261.43-51.89-19.21-121.76-17.47-194.6-5.51,10.94,47.98,18.92,78.28,18.92,78.28l-72.48,14.5c-4.2-26.24-7.83-52.98-10.94-79.87-153,35.73-299.48,102.7-301.58,104.01,1.52-2.1,29.43-40.44,62.33-131.84,32.98-91.47-57.4-148.07-62.19-150.97Zm334.12,993.09l7.25-176.34c79.73-14.5,123.21-7.25,123.21-7.25l65.23,333.4c-43.49-43.49-195.69-149.81-195.69-149.81Zm-273.09-155.68l-191.99-118.5c110.38-284.04-34.28-358.55-44.43-363.4,60.23,25.01,967.79-184.09,967.79-184.09-232.87,351.37,122.56,695.2,122.56,695.2-343.18-183.22-853.93-29.21-853.93-29.21Z"/><path class="cls-3" d="M336.77,1036.6c-24.77-64.35-104.96-243.64-271.06-374.32C23.29,774.68,0,896.48,0,1023.74c0,328.78,155.02,621.33,395.92,808.64-29.12-59.47-60.34-139.44-80.19-236.88,.72-1.63,1.45-3.25,2.21-4.87,16.47-33.99,39.52-65.13,63.8-94.14-20.14,16.22-39.29,33.6-57.09,52.51-5,5.43-9.88,10.88-14.58,16.43-4.45-25.82-8.07-52.75-10.62-80.75,2.07-6.1,4.67-12.28,7.52-18.36,16.47-33.99,39.52-65.13,63.8-94.14-20.14,16.22-39.29,33.6-57.09,52.51-5.92,6.43-11.65,12.88-17.12,19.51-5.43-104.87,4.42-223.39,40.2-353.16,41.79,85.93,78.03,174.58,108.45,265.22,46.06,138.23,78.18,282.22,87.83,427.87,1.52,17.81,2.18,44.44,2.94,62.62-.26-18.02-.08-44.79-1.11-62.72-9.87-251.2-86.31-514.97-198.1-747.42Z"/><path class="cls-4" d="M1372.02,1729.9c-192.82-165.83-512.24-293.62-757.76-357.74,138.08,57.61,276.62,115.3,411.78,179.12,107.43,51.5,214.32,105.32,312.71,172.57,40.95,28.22,80.2,58.68,114.62,95.12-22.58-33.29-51.2-62.33-81.36-89.08Z"/><path class="cls-2" d="M657.64,1571.43c133.03,62.88,269.29,118.02,397.19,190.6,42.24,24.58,83.56,50.33,119.2,84.36-90-137.68-358.87-242.11-516.39-274.97Z"/></g></g></svg>