<?xml version="1.0" encoding="UTF-8"?><svg id="_Слой_1" xmlns="http://www.w3.org/2000/svg" xmlns:xlink="http://www.w3.org/1999/xlink" viewBox="0 0 1300 900"><defs><style>.cls-1{fill:#fff;}.cls-2{fill:url(#_Безымянный_градиент_39-3);}.cls-3{fill:url(#_Безымянный_градиент_39);}.cls-4{fill:url(#_Безымянный_градиент_39-2);}.cls-5{fill:url(#_Безымянный_градиент_39-4);}</style><linearGradient id="_Безымянный_градиент_39" x1="375.12" y1="406.71" x2="966.36" y2="430.43" gradientUnits="userSpaceOnUse"><stop offset="0" stop-color="#ad21bf"/><stop offset="1" stop-color="#5f1b8c"/></linearGradient><linearGradient id="_Безымянный_градиент_39-2" x1="373.08" y1="457.47" x2="964.33" y2="481.19" xlink:href="#_Безымянный_градиент_39"/><linearGradient id="_Безымянный_градиент_39-3" x1="371.36" y1="500.4" x2="962.6" y2="524.12" xlink:href="#_Безымянный_градиент_39"/><linearGradient id="_Безымянный_градиент_39-4" x1="370.71" y1="516.67" x2="961.95" y2="540.39" xlink:href="#_Безымянный_градиент_39"/></defs><rect x="-51" y="-35.31" width="1402" height="970.62"/><g><g><path class="cls-3" d="M650,291.49c-51.62,0-96.77,27.69-121.41,69.03l4.99,2.08s23.45,61.5,80.33,92.17c68.49,36.92,119.23,89.91,119.23,89.91l-.66,2.73c35.6-25.65,58.77-67.45,58.77-114.67,0-78.01-63.24-141.25-141.25-141.25Zm-43.1,41.82c1.23,.61,19.22-.34,36.1-3.31,1.11-.2,2.23-.4,3.33-.61-.66-16.22-1.33-28.39-1.33-28.39h3c1,9,2.47,18.18,3.93,27.29,15.93-3.3,29.4-7.26,29.9-7.4-12.82,20.12,2.41,36.07,2.41,36.07-7.16-2.65-16.8-2.41-26.85-.76,1.51,6.62,2.61,10.8,2.61,10.8l-10,2c-.58-3.62-1.08-7.31-1.51-11.02-21.11,4.93-41.32,14.17-41.61,14.35,.21-.29,4.06-5.58,8.6-18.19,4.55-12.62-7.92-20.43-8.58-20.83Zm46.1,137.02l1-24.33c11-2,17-1,17-1l9,46c-6-6-27-20.67-27-20.67Zm-37.68-21.48l-26.49-16.35c15.23-39.19-4.73-49.47-6.13-50.14,8.31,3.45,133.53-25.4,133.53-25.4-32.13,48.48,16.91,95.92,16.91,95.92-47.35-25.28-117.82-4.03-117.82-4.03Z"/><path class="cls-4" d="M555.21,434.51c-3.42-8.88-14.48-33.62-37.4-51.65-5.85,15.51-9.07,32.31-9.07,49.87,0,45.36,21.39,85.73,54.63,111.57-4.02-8.2-8.33-19.24-11.06-32.68,.1-.22,.2-.45,.31-.67,2.27-4.69,5.45-8.99,8.8-12.99-2.78,2.24-5.42,4.64-7.88,7.25-.69,.75-1.36,1.5-2.01,2.27-.61-3.56-1.11-7.28-1.47-11.14,.29-.84,.64-1.69,1.04-2.53,2.27-4.69,5.45-8.99,8.8-12.99-2.78,2.24-5.42,4.64-7.88,7.25-.82,.89-1.61,1.78-2.36,2.69-.75-14.47,.61-30.82,5.55-48.73,5.77,11.86,10.77,24.09,14.96,36.59,6.35,19.07,10.79,38.94,12.12,59.04,.21,2.46,.3,6.13,.41,8.64-.04-2.49-.01-6.18-.15-8.65-1.36-34.66-11.91-71.05-27.33-103.12Z"/><path class="cls-2" d="M698.05,530.17c-26.6-22.88-70.68-40.51-104.55-49.36,19.05,7.95,38.17,15.91,56.82,24.71,14.82,7.11,29.57,14.53,43.15,23.81,5.65,3.89,11.06,8.1,15.82,13.12-3.12-4.59-7.06-8.6-11.23-12.29Z"/><path class="cls-5" d="M599.48,508.31c18.36,8.68,37.16,16.28,54.8,26.3,5.83,3.39,11.53,6.94,16.45,11.64-12.42-19-49.51-33.4-71.25-37.94Z"/></g><g><path class="cls-1" d="M518.11,556.49h-13.45l-19.47,52.02h11.22l4.46-12.26h21.04l4.38,12.26h11.3l-19.48-52.02Zm-13.6,29.65l6.84-18.88,6.84,18.88h-13.68Z"/><path class="cls-1" d="M573.78,588.97c7.29-1.86,11.67-7.06,11.67-15.54,0-10.33-6.61-16.94-17.76-16.94h-22.37v52.02h10.62v-18.73h5.88l13.45,18.73h13.08l-14.57-19.54Zm-7.28-8.48h-10.56v-13.89h10.56c5.5,0,8.17,2.67,8.17,6.98s-2.6,6.91-8.17,6.91Z"/><path class="cls-1" d="M634.5,556.49l-13.3,19.99-13.38-19.99h-12.19v52.02h10.63v-37.31l14.42,21.93h.97l14.49-21.93v37.31h10.63v-52.02h-12.27Z"/><path class="cls-1" d="M687.35,556.49h-13.46l-19.47,52.02h11.22l4.46-12.26h21.04l4.38,12.26h11.3l-19.47-52.02Zm-13.6,29.65l6.83-18.88,6.84,18.88h-13.67Z"/><path class="cls-1" d="M733.35,556.49h-18.8v52.02h18.8c15.16,0,26.61-11.15,26.61-26.01s-11.45-26.01-26.61-26.01Zm0,41.92h-8.17v-31.81h8.17c9.37,0,15.98,6.54,15.98,15.9s-6.61,15.91-15.98,15.91Z"/><path class="cls-1" d="M795.34,556.49h-13.45l-19.48,52.02h11.23l4.45-12.26h21.04l4.38,12.26h11.3l-19.47-52.02Zm-13.6,29.65l6.83-18.88,6.84,18.88h-13.67Z"/></g></g></svg>