<?xml version="1.0" encoding="UTF-8"?><svg id="Layer_2" xmlns="http://www.w3.org/2000/svg" xmlns:xlink="http://www.w3.org/1999/xlink" viewBox="0 0 857.46 824.68"><defs><style>.cls-1{fill:#fff;}.cls-2{fill:url(#_Безымянный_градиент_39-3);}.cls-3{fill:url(#_Безымянный_градиент_39);}.cls-4{fill:url(#_Безымянный_градиент_39-2);}.cls-5{fill:url(#_Безымянный_градиент_39-4);}</style><linearGradient id="_Безымянный_градиент_39" x1="-286.34" y1="299.73" x2="1251.71" y2="361.43" gradientUnits="userSpaceOnUse"><stop offset="0" stop-color="#ad21bf"/><stop offset="1" stop-color="#5f1b8c"/></linearGradient><linearGradient id="_Безымянный_градиент_39-2" x1="-291.64" y1="431.78" x2="1246.41" y2="493.48" xlink:href="#_Безымянный_градиент_39"/><linearGradient id="_Безымянный_градиент_39-3" x1="-296.12" y1="543.46" x2="1241.93" y2="605.16" xlink:href="#_Безымянный_градиент_39"/><linearGradient id="_Безымянный_градиент_39-4" x1="-297.81" y1="585.77" x2="1240.23" y2="647.47" xlink:href="#_Безымянный_градиент_39"/></defs><g id="_Слой_1"><g><g><path class="cls-3" d="M428.73,0C294.45,0,177,72.03,112.9,179.57l12.98,5.41s61,159.98,208.97,239.77c178.17,96.04,310.16,233.89,310.16,233.89l-1.72,7.1c92.61-66.72,152.88-175.46,152.88-298.3C796.17,164.51,631.66,0,428.73,0Zm-112.12,108.79c3.2,1.59,50-.88,93.91-8.61,2.89-.52,5.8-1.04,8.66-1.59-1.72-42.19-3.46-73.85-3.46-73.85h7.8c2.6,23.41,6.43,47.29,10.22,70.99,41.44-8.58,76.48-18.89,77.78-19.25-33.35,52.34,6.27,93.83,6.27,93.83-18.63-6.89-43.7-6.27-69.85-1.98,3.93,17.22,6.79,28.09,6.79,28.09l-26.01,5.2c-1.51-9.42-2.81-19.02-3.93-28.67-54.92,12.82-107.49,36.86-108.24,37.33,.55-.75,10.56-14.52,22.37-47.32,11.84-32.83-20.6-53.15-22.32-54.19Zm119.92,356.44l2.6-63.29c28.62-5.2,44.22-2.6,44.22-2.6l23.41,119.66c-15.61-15.61-70.24-53.77-70.24-53.77Zm-98.02-55.88l-68.91-42.53c39.62-101.95-12.3-128.69-15.95-130.43,21.62,8.97,347.36-66.07,347.36-66.07-83.58,126.11,43.99,249.52,43.99,249.52-123.17-65.76-306.49-10.48-306.49-10.48Z"/><path class="cls-4" d="M182.16,372.06c-8.89-23.1-37.67-87.45-97.29-134.35-15.23,40.34-23.59,84.06-23.59,129.74,0,118.01,55.64,223.01,142.1,290.24-10.45-21.34-21.66-50.05-28.78-85.02,.26-.58,.52-1.17,.79-1.75,5.91-12.2,14.18-23.38,22.9-33.79-7.23,5.82-14.1,12.06-20.49,18.85-1.79,1.95-3.55,3.9-5.23,5.9-1.6-9.27-2.9-18.93-3.81-28.98,.74-2.19,1.67-4.41,2.7-6.59,5.91-12.2,14.18-23.38,22.9-33.79-7.23,5.82-14.1,12.06-20.49,18.85-2.12,2.31-4.18,4.62-6.14,7-1.95-37.64,1.59-80.18,14.43-126.76,15,30.84,28.01,62.66,38.92,95.19,16.53,49.61,28.06,101.29,31.52,153.57,.55,6.39,.78,15.95,1.05,22.48-.09-6.47-.03-16.08-.4-22.51-3.54-90.16-30.98-184.83-71.1-268.27Z"/><path class="cls-2" d="M553.73,620.9c-69.21-59.52-183.85-105.39-271.98-128.4,49.56,20.68,99.28,41.38,147.8,64.29,38.56,18.48,76.93,37.8,112.24,61.94,14.7,10.13,28.78,21.06,41.14,34.14-8.11-11.95-18.38-22.37-29.2-31.97Z"/><path class="cls-5" d="M297.32,564.02c47.75,22.57,96.66,42.36,142.56,68.41,15.16,8.82,29.99,18.06,42.78,30.28-32.3-49.42-128.81-86.9-185.34-98.69Z"/></g><g><path class="cls-1" d="M85.64,689.36H50.65L0,824.68H29.19l11.6-31.89h54.73l11.39,31.89h29.4l-50.68-135.32Zm-35.38,77.13l17.79-49.11,17.79,49.11H50.26Z"/><path class="cls-1" d="M230.46,773.85c18.96-4.84,30.36-18.37,30.36-40.43,0-26.87-17.19-44.07-46.2-44.07h-58.19v135.32h27.63v-48.72h15.3l34.99,48.72h34.03l-37.9-50.83Zm-18.94-22.06h-27.47v-36.13h27.47c14.31,0,21.25,6.95,21.25,18.16s-6.76,17.98-21.25,17.98Z"/><path class="cls-1" d="M388.41,689.36l-34.6,52-34.81-52h-31.71v135.32h27.65v-97.06l37.51,57.05h2.52l37.69-57.05v97.06h27.65v-135.32h-31.92Z"/><path class="cls-1" d="M525.89,689.36h-35.01l-50.65,135.32h29.19l11.6-31.89h54.73l11.39,31.89h29.4l-50.65-135.32Zm-35.38,77.13l17.77-49.11,17.79,49.11h-35.56Z"/><path class="cls-1" d="M645.56,689.36h-48.91v135.32h48.91c39.44,0,69.22-29.01,69.22-67.66s-29.79-67.66-69.22-67.66Zm0,109.05h-21.25v-82.75h21.25c24.37,0,41.57,17.01,41.57,41.36s-17.2,41.39-41.57,41.39Z"/><path class="cls-1" d="M806.81,689.36h-34.99l-50.68,135.32h29.21l11.58-31.89h54.73l11.39,31.89h29.4l-50.65-135.32Zm-35.38,77.13l17.77-49.11,17.79,49.11h-35.56Z"/></g></g></g></svg>